<mxfile host="app.diagrams.net" modified="2023-05-04T14:08:40.972Z" agent="Mozilla/5.0 (Macintosh; Intel Mac OS X 10_15_7) AppleWebKit/605.1.15 (KHTML, like Gecko) Version/16.4 Safari/605.1.15" etag="dZxdbZnmaFOVRzaDPBHY" version="21.2.7" type="device">
  <diagram name="Page-1" id="U1p5k2ou6aDQazZYMd7k">
    <mxGraphModel dx="954" dy="599" grid="1" gridSize="10" guides="1" tooltips="1" connect="1" arrows="1" fold="1" page="1" pageScale="1" pageWidth="1169" pageHeight="827" math="0" shadow="0">
      <root>
        <mxCell id="0" />
        <mxCell id="1" parent="0" />
        <mxCell id="TZo_N9mRo1DwKw464_Jb-21" value="System" style="shape=umlLifeline;perimeter=lifelinePerimeter;whiteSpace=wrap;html=1;container=0;dropTarget=0;collapsible=0;recursiveResize=0;outlineConnect=0;portConstraint=eastwest;newEdgeStyle={&quot;edgeStyle&quot;:&quot;elbowEdgeStyle&quot;,&quot;elbow&quot;:&quot;vertical&quot;,&quot;curved&quot;:0,&quot;rounded&quot;:0};" vertex="1" parent="1">
          <mxGeometry x="580" y="135" width="100" height="305" as="geometry" />
        </mxCell>
        <mxCell id="TZo_N9mRo1DwKw464_Jb-22" value="" style="html=1;points=[];perimeter=orthogonalPerimeter;outlineConnect=0;targetShapes=umlLifeline;portConstraint=eastwest;newEdgeStyle={&quot;edgeStyle&quot;:&quot;elbowEdgeStyle&quot;,&quot;elbow&quot;:&quot;vertical&quot;,&quot;curved&quot;:0,&quot;rounded&quot;:0};" vertex="1" parent="TZo_N9mRo1DwKw464_Jb-21">
          <mxGeometry x="45" y="80" width="10" height="210" as="geometry" />
        </mxCell>
        <mxCell id="TZo_N9mRo1DwKw464_Jb-23" value="produceStatsMoment(Date day, Coordinates coord, double area)" style="html=1;verticalAlign=bottom;endArrow=block;edgeStyle=elbowEdgeStyle;elbow=vertical;curved=0;rounded=0;" edge="1" parent="1" target="TZo_N9mRo1DwKw464_Jb-22">
          <mxGeometry relative="1" as="geometry">
            <mxPoint x="284.5" y="220" as="sourcePoint" />
            <Array as="points">
              <mxPoint x="395" y="220" />
            </Array>
          </mxGeometry>
        </mxCell>
        <mxCell id="TZo_N9mRo1DwKw464_Jb-24" value="int: ATMOIdx" style="html=1;verticalAlign=bottom;endArrow=open;dashed=1;endSize=8;edgeStyle=elbowEdgeStyle;elbow=vertical;curved=0;rounded=0;" edge="1" parent="1" source="TZo_N9mRo1DwKw464_Jb-22">
          <mxGeometry x="0.0013" relative="1" as="geometry">
            <mxPoint x="290" y="420" as="targetPoint" />
            <Array as="points">
              <mxPoint x="510" y="420" />
              <mxPoint x="490" y="430" />
              <mxPoint x="595" y="480" />
              <mxPoint x="505" y="440" />
              <mxPoint x="545" y="420" />
              <mxPoint x="405" y="380" />
            </Array>
            <mxPoint as="offset" />
          </mxGeometry>
        </mxCell>
        <mxCell id="TZo_N9mRo1DwKw464_Jb-25" value="DataBase" style="shape=umlLifeline;perimeter=lifelinePerimeter;whiteSpace=wrap;html=1;container=0;dropTarget=0;collapsible=0;recursiveResize=0;outlineConnect=0;portConstraint=eastwest;newEdgeStyle={&quot;edgeStyle&quot;:&quot;elbowEdgeStyle&quot;,&quot;elbow&quot;:&quot;vertical&quot;,&quot;curved&quot;:0,&quot;rounded&quot;:0};" vertex="1" parent="1">
          <mxGeometry x="920" y="140" width="100" height="300" as="geometry" />
        </mxCell>
        <mxCell id="TZo_N9mRo1DwKw464_Jb-26" value="" style="html=1;points=[];perimeter=orthogonalPerimeter;outlineConnect=0;targetShapes=umlLifeline;portConstraint=eastwest;newEdgeStyle={&quot;edgeStyle&quot;:&quot;elbowEdgeStyle&quot;,&quot;elbow&quot;:&quot;vertical&quot;,&quot;curved&quot;:0,&quot;rounded&quot;:0};" vertex="1" parent="TZo_N9mRo1DwKw464_Jb-25">
          <mxGeometry x="45" y="90" width="10" height="40" as="geometry" />
        </mxCell>
        <mxCell id="TZo_N9mRo1DwKw464_Jb-27" value="" style="html=1;points=[];perimeter=orthogonalPerimeter;outlineConnect=0;targetShapes=umlLifeline;portConstraint=eastwest;newEdgeStyle={&quot;edgeStyle&quot;:&quot;elbowEdgeStyle&quot;,&quot;elbow&quot;:&quot;vertical&quot;,&quot;curved&quot;:0,&quot;rounded&quot;:0};" vertex="1" parent="TZo_N9mRo1DwKw464_Jb-25">
          <mxGeometry x="45" y="160" width="10" height="40" as="geometry" />
        </mxCell>
        <mxCell id="TZo_N9mRo1DwKw464_Jb-28" value="" style="endArrow=block;html=1;rounded=0;endFill=1;" edge="1" parent="1" source="TZo_N9mRo1DwKw464_Jb-22" target="TZo_N9mRo1DwKw464_Jb-26">
          <mxGeometry width="50" height="50" relative="1" as="geometry">
            <mxPoint x="685" y="240" as="sourcePoint" />
            <mxPoint x="875" y="240" as="targetPoint" />
            <Array as="points">
              <mxPoint x="915" y="230" />
            </Array>
          </mxGeometry>
        </mxCell>
        <mxCell id="TZo_N9mRo1DwKw464_Jb-29" value="getSensorsAround(Coordinates coord, double area)" style="edgeLabel;html=1;align=center;verticalAlign=middle;resizable=0;points=[];" vertex="1" connectable="0" parent="TZo_N9mRo1DwKw464_Jb-28">
          <mxGeometry x="-0.4123" y="2" relative="1" as="geometry">
            <mxPoint x="73" y="-8" as="offset" />
          </mxGeometry>
        </mxCell>
        <mxCell id="TZo_N9mRo1DwKw464_Jb-30" value="" style="endArrow=open;html=1;rounded=0;endFill=0;dashed=1;" edge="1" parent="1" source="TZo_N9mRo1DwKw464_Jb-26" target="TZo_N9mRo1DwKw464_Jb-22">
          <mxGeometry width="50" height="50" relative="1" as="geometry">
            <mxPoint x="735" y="315" as="sourcePoint" />
            <mxPoint x="785" y="265" as="targetPoint" />
            <Array as="points">
              <mxPoint x="795" y="270" />
            </Array>
          </mxGeometry>
        </mxCell>
        <mxCell id="TZo_N9mRo1DwKw464_Jb-31" value="Vector&amp;lt;Sensor&amp;gt;: listSensors" style="edgeLabel;html=1;align=center;verticalAlign=middle;resizable=0;points=[];" vertex="1" connectable="0" parent="TZo_N9mRo1DwKw464_Jb-30">
          <mxGeometry x="0.2794" y="1" relative="1" as="geometry">
            <mxPoint x="37" y="-11" as="offset" />
          </mxGeometry>
        </mxCell>
        <mxCell id="TZo_N9mRo1DwKw464_Jb-32" value="" style="endArrow=block;html=1;rounded=0;endFill=1;" edge="1" parent="1" source="TZo_N9mRo1DwKw464_Jb-22" target="TZo_N9mRo1DwKw464_Jb-27">
          <mxGeometry width="50" height="50" relative="1" as="geometry">
            <mxPoint x="670" y="299.9999999999999" as="sourcePoint" />
            <mxPoint x="940" y="299.9999999999999" as="targetPoint" />
            <Array as="points">
              <mxPoint x="890" y="300" />
            </Array>
          </mxGeometry>
        </mxCell>
        <mxCell id="TZo_N9mRo1DwKw464_Jb-33" value="getMeasuresAtMoment(Vector&amp;lt;Sensor&amp;gt; listSensors, Date date)" style="edgeLabel;html=1;align=center;verticalAlign=middle;resizable=0;points=[];" vertex="1" connectable="0" parent="TZo_N9mRo1DwKw464_Jb-32">
          <mxGeometry x="-0.4123" y="2" relative="1" as="geometry">
            <mxPoint x="66" y="-8" as="offset" />
          </mxGeometry>
        </mxCell>
        <mxCell id="TZo_N9mRo1DwKw464_Jb-34" value="" style="endArrow=open;html=1;rounded=0;endFill=0;dashed=1;" edge="1" parent="1" source="TZo_N9mRo1DwKw464_Jb-27" target="TZo_N9mRo1DwKw464_Jb-22">
          <mxGeometry width="50" height="50" relative="1" as="geometry">
            <mxPoint x="940" y="340" as="sourcePoint" />
            <mxPoint x="670" y="340" as="targetPoint" />
            <Array as="points">
              <mxPoint x="795" y="340" />
            </Array>
          </mxGeometry>
        </mxCell>
        <mxCell id="TZo_N9mRo1DwKw464_Jb-35" value="Vector&amp;lt;Measure&amp;gt;: listMeasures" style="edgeLabel;html=1;align=center;verticalAlign=middle;resizable=0;points=[];" vertex="1" connectable="0" parent="TZo_N9mRo1DwKw464_Jb-34">
          <mxGeometry x="0.2794" y="1" relative="1" as="geometry">
            <mxPoint x="37" y="-11" as="offset" />
          </mxGeometry>
        </mxCell>
        <mxCell id="TZo_N9mRo1DwKw464_Jb-36" value="" style="rounded=0;whiteSpace=wrap;html=1;" vertex="1" parent="1">
          <mxGeometry x="630" y="366" width="10" height="40" as="geometry" />
        </mxCell>
        <mxCell id="TZo_N9mRo1DwKw464_Jb-37" value="" style="endArrow=block;html=1;rounded=0;exitX=0.967;exitY=0.083;exitDx=0;exitDy=0;entryX=1.111;entryY=0.858;entryDx=0;entryDy=0;entryPerimeter=0;exitPerimeter=0;endFill=1;" edge="1" parent="1" source="TZo_N9mRo1DwKw464_Jb-36" target="TZo_N9mRo1DwKw464_Jb-36">
          <mxGeometry width="50" height="50" relative="1" as="geometry">
            <mxPoint x="680" y="380" as="sourcePoint" />
            <mxPoint x="690" y="410" as="targetPoint" />
            <Array as="points">
              <mxPoint x="660" y="369" />
              <mxPoint x="660" y="400" />
            </Array>
          </mxGeometry>
        </mxCell>
        <mxCell id="TZo_N9mRo1DwKw464_Jb-38" value="int: computeATMOIdx(listMeasures)" style="edgeLabel;html=1;align=center;verticalAlign=middle;resizable=0;points=[];" vertex="1" connectable="0" parent="TZo_N9mRo1DwKw464_Jb-37">
          <mxGeometry x="0.0185" y="2" relative="1" as="geometry">
            <mxPoint x="103" y="1" as="offset" />
          </mxGeometry>
        </mxCell>
        <mxCell id="TZo_N9mRo1DwKw464_Jb-39" value="user interface" style="shape=umlActor;verticalLabelPosition=bottom;verticalAlign=top;html=1;outlineConnect=0;" vertex="1" parent="1">
          <mxGeometry x="270" y="120" width="20" height="40" as="geometry" />
        </mxCell>
        <mxCell id="TZo_N9mRo1DwKw464_Jb-40" value="" style="endArrow=none;dashed=1;html=1;rounded=0;" edge="1" parent="1">
          <mxGeometry width="50" height="50" relative="1" as="geometry">
            <mxPoint x="280" y="440" as="sourcePoint" />
            <mxPoint x="280" y="180" as="targetPoint" />
          </mxGeometry>
        </mxCell>
      </root>
    </mxGraphModel>
  </diagram>
</mxfile>
